# xmcd CD database file
# Copyright (C) 1995-1998 Ti Kan
#
# Track frame offsets:
#	150
#	11400
#	21520
#	33460
#	46282
#	58725
#	68875
#	79302
#	90152
#	102820
#	114132
#	126282
#	138777
#	148810
#	160305
#	168720
#	176472
#	186820
#	198982
#	208765
#
# Disc length: 2925 seconds
#
# Revision: 1
# Processed by: cddbd v1.4b42PL0 Copyright (c) Steve Scherf et al.
# Submitted via: CDex 1.30Release
#
DISCID=140b6b14
DTITLE=Johnny Cash and The Tennessee Two - The Complete Original Sun Singles
DYEAR=1999
DGENRE=Country
TTITLE0=Cry! Cry! Cry!
TTITLE1=Hey Porter!
TTITLE2=So Doggone Lonesome
TTITLE3=Folsom Prison Blues
TTITLE4=I Walk The Line
TTITLE5=Get Rhythm
TTITLE6=There You Go
TTITLE7=Train Of Love
TTITLE8=Next In Line
TTITLE9=Don't Make Me Go
TTITLE10=Home Of The Blues
TTITLE11=Give My Love To Rose
TTITLE12=Ballad of A Teenage Queen
TTITLE13=Big River
TTITLE14=Guess Things Happen That Way
TTITLE15=Come In Stranger
TTITLE16=The Ways Of A Woman In Love
TTITLE17=You're The Nearest Thing To Heaven
TTITLE18=It's Just About Time
TTITLE19=I Just Thought You'd Like To Know
EXTD=YEAR: 1999 ID3G:   2
EXTT0=
EXTT1=
EXTT2=
EXTT3=
EXTT4=
EXTT5=
EXTT6=
EXTT7=
EXTT8=
EXTT9=
EXTT10=
EXTT11=
EXTT12=
EXTT13=
EXTT14=
EXTT15=
EXTT16=
EXTT17=
EXTT18=
EXTT19=
PLAYORDER=
